<svg id="Layer_1" data-name="Layer 1" xmlns="http://www.w3.org/2000/svg" width="130" height="90" viewBox="0 0 130 90">
  <title>Homepage-2x</title>
  <path d="M78.49,63.49c-2.64,0-4.53.9-5.45,2.61l-.5.92V63.94h-4.3v18.8h4.53V71.56c0-2.67,1.45-4.21,4-4.21s3.8,1.49,3.8,4.09v11.3h4.53V70.63C85.07,66.16,82.61,63.49,78.49,63.49Zm-21.94,0c-5.34,0-8.66,3.33-8.66,8.69v2.64c0,5.16,3.35,8.36,8.73,8.36,3.6,0,6.13-1.32,7.72-4l-2.81-1.61a6.28,6.28,0,0,1-4.91,2.53c-2.73,0-4.35-1.68-4.35-4.5v-.75H64.91V71.71C64.91,66.72,61.62,63.49,56.55,63.49Zm4.24,8.29H52.27v-.45c0-3.1,1.52-4.8,4.28-4.8s4.24,1.68,4.24,4.5ZM130,60.85v-3.6H114.35v3.6h5.49v18.3h-5.49v3.6H130v-3.6h-5.49V60.85ZM11.33,56.73C4.34,56.73,0,61.09,0,68.1v3.79c0,7,4.34,11.37,11.33,11.37s11.33-4.36,11.33-11.37V68.1C22.67,61.09,18.32,56.73,11.33,56.73ZM18,72.15c0,4.66-2.43,7.33-6.66,7.33s-6.66-2.67-6.66-7.33V67.84c0-4.66,2.43-7.33,6.66-7.33S18,63.18,18,67.84Zm18.89-8.66a6.42,6.42,0,0,0-5.5,2.63l-.49.75V63.94h-4.3V89.21h4.53V80.06l.48.72a6.29,6.29,0,0,0,5.32,2.41c3.9,0,7.84-2.55,7.84-8.25v-3.2C44.76,67.64,42.32,63.49,36.88,63.49Zm3.35,11.22c0,3-1.77,4.91-4.61,4.91-2.65,0-4.5-2-4.5-4.84V72c0-2.89,1.87-4.91,4.54-4.91,2.82,0,4.58,1.88,4.58,4.91ZM97.57,57.25,88.43,82.74H93l1.75-5.46h10.5l0,.05L107,82.74h4.6l-9.14-25.49ZM95.91,73.68,100,60.79l4.08,12.89Z" fill="#572f5f" />
  <path d="M83.41,18.1a10.71,10.71,0,0,0-.92-8.8A10.83,10.83,0,0,0,70.83,4.1,10.71,10.71,0,0,0,62.75.5,10.83,10.83,0,0,0,52.41,8a10.71,10.71,0,0,0-7.16,5.2,10.83,10.83,0,0,0,1.33,12.7,10.71,10.71,0,0,0,.92,8.8,10.83,10.83,0,0,0,11.67,5.2,10.71,10.71,0,0,0,8.08,3.6A10.83,10.83,0,0,0,77.59,36a10.71,10.71,0,0,0,7.16-5.2A10.83,10.83,0,0,0,83.41,18.1ZM67.25,40.69a8,8,0,0,1-5.16-1.87l.26-.14,8.56-4.94a1.39,1.39,0,0,0,.7-1.22V20.45l3.62,2.09a.13.13,0,0,1,.07.1v10A8.07,8.07,0,0,1,67.25,40.69ZM49.94,33.3a8,8,0,0,1-1-5.4l.25.15L57.8,33a1.39,1.39,0,0,0,1.41,0l10.45-6v4.18a.13.13,0,0,1-.05.11l-8.66,5A8.07,8.07,0,0,1,49.94,33.3ZM47.69,14.61a8,8,0,0,1,4.19-3.53c0,.07,0,.2,0,.3v9.89a1.39,1.39,0,0,0,.7,1.22l10.45,6L59.41,30.6a.13.13,0,0,1-.12,0l-8.66-5A8.07,8.07,0,0,1,47.69,14.61Zm29.73,6.92L67,15.49l3.62-2.09a.13.13,0,0,1,.12,0l8.66,5a8.06,8.06,0,0,1-1.25,14.54c0-.07,0-.2,0-.3V22.74A1.39,1.39,0,0,0,77.42,21.52ZM81,16.1,80.77,16,72.2,11a1.39,1.39,0,0,0-1.41,0L60.35,17V12.86a.13.13,0,0,1,.05-.11l8.66-5A8.06,8.06,0,0,1,81,16.1ZM58.38,23.55l-3.62-2.09a.13.13,0,0,1-.07-.1v-10A8.06,8.06,0,0,1,67.9,5.18l-.26.14-8.56,4.94a1.39,1.39,0,0,0-.7,1.22Zm2-4.24L65,16.63l4.65,2.69v5.37L65,27.37l-4.65-2.69Z" fill="#52295b" />
</svg>
